<svg width="136" height="50" viewBox="0 0 136 50" fill="none" xmlns="http://www.w3.org/2000/svg">
<mask id="mask0_2318_7700" style="mask-type:luminance" maskUnits="userSpaceOnUse" x="3" y="7" width="130" height="35">
<path d="M132.371 7H3V42H132.371V7Z" fill="white"/>
</mask>
<g mask="url(#mask0_2318_7700)">
<path d="M93.8165 22.2006V26.8584H83.0869V37.413H78.1321V26.8584H67.4023V22.2006H78.1321V11.5869H83.0869V22.2006H93.8165Z" fill="#D1252B"/>
<path d="M132.369 21.5043V27.5704H117.707V42H111.264V27.5704H96.6016V21.5043H111.264V7H117.707V21.5043H132.369Z" fill="#D1252B"/>
<path d="M57.2801 11.1108H49.8214L38 37.887H45.7262L47.8131 32.6844H59.1703L61.2592 37.887H69.1388L57.2801 11.1108ZM50.0554 27.1002L53.4937 18.5361L56.9299 27.1002H50.0535H50.0554Z" fill="#D1252B"/>
<path d="M3.50781 21.416H5.78161L9.40081 26.0659V21.416H11.8143V30.2122H9.67815L5.92126 25.3873V30.2122H3.50781V21.416Z" fill="#D1252B"/>
<path d="M16.1611 21.353H18.5116L22.2567 30.2122H19.6425L19.0014 28.6406H15.6083L14.9809 30.2122H12.418L16.163 21.353H16.1611ZM18.2972 26.7444L17.3177 24.2445L16.3244 26.7444H18.2972Z" fill="#D1252B"/>
<path d="M26.4033 21.353H28.7538L32.4989 30.2122H29.8847L29.2436 28.6406H25.8505L25.2231 30.2122H22.6602L26.4052 21.353H26.4033ZM28.5394 26.7444L27.5599 24.2445L26.5665 26.7444H28.5394Z" fill="#D1252B"/>
<path d="M32.045 25.8395V25.8139C32.045 23.251 34.0179 21.2407 36.6811 21.2407C38.4789 21.2407 39.6335 21.9941 40.4124 23.0759L38.5772 24.496C38.0737 23.8686 37.4954 23.4654 36.6555 23.4654C35.4242 23.4654 34.5567 24.5078 34.5567 25.7903V25.8159C34.5567 27.1357 35.4242 28.1664 36.6555 28.1664C37.5721 28.1664 38.113 27.7395 38.6402 27.0983L40.4753 28.4044C39.6453 29.5472 38.5281 30.389 36.5788 30.389C34.065 30.389 32.043 28.4654 32.043 25.8395H32.045Z" fill="#D1252B"/>
<path d="M3 34.7756V34.7619C3 33.3063 4.14083 32.1655 5.68883 32.1655C6.56609 32.1655 7.18568 32.4369 7.71479 32.8933L6.90244 33.8709C6.54642 33.5719 6.18843 33.4008 5.69669 33.4008C4.97679 33.4008 4.42014 34.0066 4.42014 34.7698V34.7836C4.42014 35.59 4.98269 36.1663 5.77537 36.1663C6.10976 36.1663 6.36743 36.0955 6.57396 35.9598V35.3539H5.59048V34.3409H7.88591V36.5872C7.35877 37.0219 6.62313 37.3583 5.71833 37.3583C4.16444 37.3583 3 36.2882 3 34.7776V34.7756Z" fill="#231F20"/>
<path d="M8.65234 32.2656H11.0127C11.7758 32.2656 12.303 32.4662 12.6393 32.8086C12.9324 33.0937 13.082 33.4792 13.082 33.971V33.9848C13.082 34.7479 12.6748 35.2534 12.0552 35.517L13.2452 37.2578H11.648L10.6429 35.7452H10.0371V37.2578H8.65431V32.2656H8.65234ZM10.9478 34.6614C11.4179 34.6614 11.6893 34.4332 11.6893 34.0693V34.0556C11.6893 33.6641 11.4041 33.4635 10.9399 33.4635H10.0351V34.6614H10.9478Z" fill="#231F20"/>
<path d="M15.6497 32.23H16.9833L19.1077 37.2575H17.6246L17.2607 36.3665H15.3351L14.979 37.2575H13.5234L15.6478 32.23H15.6497ZM16.8614 35.2886L16.3047 33.8704L15.7421 35.2886H16.8614Z" fill="#231F20"/>
<path d="M19.5977 32.2657H21.5233C23.3053 32.2657 24.34 33.2924 24.34 34.7322V34.7459C24.34 36.1858 23.2916 37.2558 21.4938 37.2558H19.5977V32.2637V32.2657ZM21.5449 36.0304C22.373 36.0304 22.9218 35.5741 22.9218 34.7676V34.7539C22.9218 33.9552 22.373 33.4911 21.5449 33.4911H20.9824V36.0304H21.5449Z" fill="#231F20"/>
<path d="M25.0508 32.2657H29.0653V33.4419H26.4198V34.1972H28.8156V35.2889H26.4198V36.0796H29.1007V37.2558H25.0508V32.2637V32.2657Z" fill="#231F20"/>
</g>
</svg>
